<?xml version="1.0" encoding="UTF-8" standalone="no"?>
<!DOCTYPE svg PUBLIC "-//W3C//DTD SVG 1.1//EN" "http://www.w3.org/Graphics/SVG/1.1/DTD/svg11.dtd">
<svg width="100%" height="100%" viewBox="0 0 427 250" version="1.1" xmlns="http://www.w3.org/2000/svg" xmlns:xlink="http://www.w3.org/1999/xlink" xml:space="preserve" xmlns:serif="http://www.serif.com/" style="fill-rule:evenodd;clip-rule:evenodd;stroke-miterlimit:10;">
    <g transform="matrix(1.054,0,0,1,13.5859,210.023)">
        <text x="0px" y="0px" style="font-family:'Courier';font-size:44.265px;">tilde~</text>
    </g>
    <path d="M187.2,227.7L8.3,227.7C7.8,227.7 8.7,229.099 8.7,227.5L8.7,164.6C8.7,165.1 7.3,165.201 8.8,165.201L187.1,165.201C186.1,165.201 186.4,163.901 186.4,165.701L186.4,228.5C186.4,229.5 187.9,229.5 187.9,228.5C187.9,207.2 187.9,185.8 187.9,164.5C187.9,164.1 187.6,163.7 187.1,163.7L7.9,163.7C7.5,163.7 7.1,164 7.1,164.5C7.1,185.8 7.1,207.2 7.1,228.5C7.1,228.9 7.4,229.3 7.9,229.3L187.1,229.3C188.2,229.2 188.2,227.7 187.2,227.7Z" style="fill-rule:nonzero;"/>
    <rect x="13.5" y="165" width="37" height="11" style="fill:none;stroke:black;stroke-opacity:0.4;stroke-width:2px;"/>
    <rect x="6.5" y="26" width="53" height="53" style="fill:none;stroke:black;stroke-width:2px;"/>
    <ellipse cx="33.3" cy="52.6" rx="26.3" ry="25.8" style="fill:none;stroke:black;stroke-width:2px;"/>
    <path d="M33.5,77L33.5,165" style="fill:none;stroke:black;stroke-width:8px;"/>
    <g transform="matrix(1,0,0,1,124.499,41.3477)">
        <g transform="matrix(1,0,0,1,-51.5,0)">
            <text x="0px" y="0px" style="font-family:'HelveticaNeue', 'Helvetica Neue';font-size:33px;">new_music_festival_</text>
        </g>
        <g transform="matrix(1,0,0,1,-51.5,44)">
            <text x="0px" y="0px" style="font-family:'HelveticaNeue', 'Helvetica Neue';font-size:33px;">&amp;_academy_2019</text>
        </g>
    </g>
    <g transform="matrix(1,0,0,1,53.4233,131.656)">
        <text x="0px" y="0px" style="font-family:'HelveticaNeue-Light', 'Helvetica Neue';font-weight:300;font-size:28.516px;">/.january_13-20</text>
    </g>
    <g transform="matrix(1,0,0,1,318.423,130.656)">
        <g transform="matrix(1,0,0,1,-51.5,0)">
            <text x="0px" y="0px" style="font-family:'HelveticaNeue', 'Helvetica Neue';font-size:23px;">/.performance</text>
        </g>
        <g transform="matrix(1,0,0,1,-51.5,25)">
            <text x="0px" y="0px" style="font-family:'HelveticaNeue', 'Helvetica Neue';font-size:23px;">/.discussion</text>
        </g>
        <g transform="matrix(1,0,0,1,-51.5,50)">
            <text x="0px" y="0px" style="font-family:'HelveticaNeue', 'Helvetica Neue';font-size:23px;">/.lear<tspan x="51.934px 64.722px " y="0px 0px ">ni</tspan>ng</text>
        </g>
        <g transform="matrix(1,0,0,1,-51.5,75)">
            <text x="0px" y="0px" style="font-family:'HelveticaNeue', 'Helvetica Neue';font-size:23px;">/.installation</text>
        </g>
        <g transform="matrix(1,0,0,1,-51.5,100)">
            <text x="0px" y="0px" style="font-family:'HelveticaNeue', 'Helvetica Neue';font-size:23px;">/.collaboration</text>
        </g>
    </g>
</svg>
