<?xml version="1.0" encoding="utf-8"?>
<!-- Generator: Adobe Illustrator 16.0.0, SVG Export Plug-In . SVG Version: 6.00 Build 0)  -->
<!DOCTYPE svg PUBLIC "-//W3C//DTD SVG 1.1//EN" "http://www.w3.org/Graphics/SVG/1.1/DTD/svg11.dtd">
<svg version="1.1" id="Layer_1" xmlns="http://www.w3.org/2000/svg" xmlns:xlink="http://www.w3.org/1999/xlink" x="0px" y="0px"
	 width="196px" height="194.9px" viewBox="0 0 196 194.9" enable-background="new 0 0 196 194.9" xml:space="preserve">
<g id="Type">
	<path d="M97.8,85v1.5c0.5-1.1,1.4-1.6,2.7-1.6v3h-0.1c-2,0-2.4,0.7-2.4,2.7v5.4h-3.2V85H97.8z"/>
	<polygon points="101.5,87.4 101.5,85 102.8,85 102.8,81.5 106.1,81.5 106.1,85 107.5,85 107.5,87.4 106.1,87.4 106.1,95.9 
		102.8,95.9 102.8,87.4 	"/>
	<path d="M111,92.6v0.1c0,0.6,0.5,1,1.2,1c0.7,0,1.1-0.3,1.1-1c0-0.9-0.9-0.9-2.2-1.3c-1.9-0.6-2.8-1.6-2.8-3.2
		c0-2.1,1.6-3.6,4.2-3.6c2.2,0,3.7,1.3,3.8,3.3h-2.9c-0.1-0.7-0.4-1-1-1c-0.6,0-1,0.4-1,0.9c0,0.7,0.7,0.9,1.8,1.2
		c2.2,0.6,3.3,1.5,3.3,3.3c0,2.2-1.7,3.8-4.4,3.8c-2.4,0-3.9-1.3-4.2-3.5H111z"/>
	<path d="M87.2,113.6c-2.1,0-3.9-0.8-5.3-2.3c-1.4-1.4-2-3.2-2-5.3c0-2,0.7-3.8,2.2-5.2c1.4-1.4,3.2-2.1,5.2-2.1
		c3.4,0,6.2,2.2,7.2,5.8h-3.8c-0.8-1.4-1.9-2.2-3.3-2.2c-2.1,0-3.8,1.7-3.8,3.8c0,2.3,1.8,4.1,3.8,4.1c1.4,0,2.6-0.7,3.3-2.1h3.8
		C93.4,111.5,90.6,113.6,87.2,113.6"/>
	<path d="M106.3,110.2c-1.1,2.3-2.9,3.4-5.3,3.4c-1.7,0-3-0.6-4.1-1.7c-1.1-1.1-1.6-2.5-1.6-4c0-1.5,0.6-2.9,1.7-4
		c1.1-1.1,2.5-1.7,4-1.7c3.5,0,5.8,2.5,5.8,6.5v0.3h-8.2c0.3,1.2,1.1,1.8,2.5,1.8c0.6,0,1.2-0.2,1.7-0.6H106.3z M103.6,106.8
		c-0.4-1.1-1.3-1.7-2.6-1.7c-1.3,0-2.3,0.7-2.5,1.7H103.6z"/>
	<path d="M107.8,113.4v-10.9h3l0,1.5c0.7-1.1,1.7-1.7,3.1-1.7c2.2,0,3.7,1.4,3.7,3.9v7.2h-3.2v-5.9c0-1.5-0.3-2.2-1.6-2.2
		c-1.3,0-1.9,0.8-1.9,2.2v5.9H107.8z"/>
	<polygon points="118.7,104.9 118.7,102.5 120.1,102.5 120.1,99 123.3,99 123.3,102.5 124.8,102.5 124.8,104.9 123.3,104.9 
		123.3,113.4 120.1,113.4 120.1,104.9 	"/>
	<path d="M129,102.5v1.5c0.5-1.1,1.4-1.6,2.7-1.6v3h-0.1c-2,0-2.4,0.7-2.4,2.7v5.4H126v-10.9H129z"/>
	<path d="M143.2,110.2c-1.1,2.3-2.9,3.4-5.3,3.4c-1.7,0-3-0.6-4.1-1.7c-1.1-1.1-1.6-2.5-1.6-4c0-1.5,0.6-2.9,1.7-4
		c1.1-1.1,2.5-1.7,4-1.7c3.5,0,5.8,2.5,5.8,6.5v0.3h-8.2c0.3,1.2,1.1,1.8,2.5,1.8c0.6,0,1.2-0.2,1.7-0.6H143.2z M140.5,106.8
		c-0.4-1.1-1.3-1.7-2.6-1.7c-1.3,0-2.3,0.7-2.5,1.7H140.5z"/>
	<polygon points="80.4,130.8 80.4,116.4 85.2,116.4 88,125.3 90.8,116.4 95.6,116.4 95.6,130.8 92.2,130.8 92.2,121.3 89.2,130.8 
		86.7,130.8 83.8,121.3 83.8,130.8 	"/>
	<path d="M108.1,127.7c-1.1,2.3-2.9,3.4-5.3,3.4c-1.7,0-3-0.6-4.1-1.7c-1.1-1.1-1.6-2.5-1.6-4c0-1.5,0.6-2.9,1.7-4
		c1.1-1.1,2.5-1.7,4-1.7c3.5,0,5.8,2.5,5.8,6.5v0.3h-8.2c0.3,1.2,1.1,1.8,2.5,1.8c0.6,0,1.2-0.2,1.7-0.6H108.1z M105.3,124.3
		c-0.4-1.1-1.3-1.7-2.6-1.7c-1.3,0-2.3,0.7-2.5,1.7H105.3z"/>
	<rect x="109.9" y="116.4" width="3.2" height="14.4"/>
	<path d="M118.1,130.8H115v-14.4h3.2v4.7c0.7-0.9,1.7-1.4,3-1.4c1.4,0,2.6,0.5,3.6,1.5c1.1,1.1,1.7,2.5,1.7,4.1
		c0,1.7-0.6,3.2-1.9,4.3c-1,0.9-2.1,1.3-3.4,1.3c-1.3,0-2.3-0.3-3.2-1.3V130.8z M120.6,128c1.6,0,2.8-1.2,2.8-2.7
		c0-1.5-1.2-2.7-2.7-2.7c-1.5,0-2.6,1.2-2.6,2.7C118.1,126.9,119.2,128,120.6,128"/>
	<path d="M129.2,121.4c1.1-1.1,2.5-1.7,4-1.7c1.6,0,2.9,0.5,4,1.6c1.2,1.1,1.8,2.6,1.8,4.1c0,1.6-0.5,3-1.6,4.1
		c-1.1,1.1-2.5,1.7-4.1,1.7c-1.7,0-3-0.6-4.1-1.7c-1.1-1.1-1.6-2.5-1.6-4C127.5,123.9,128.1,122.5,129.2,121.4 M133.2,128.1
		c1.4,0,2.6-1.2,2.6-2.7c0-1.5-1.2-2.7-2.6-2.7c-1.4,0-2.6,1.2-2.6,2.7C130.7,126.9,131.8,128.1,133.2,128.1"/>
	<path d="M150.2,120v10.9h-3v-1.5c-0.7,1.1-1.7,1.7-3.1,1.7c-2.2,0-3.7-1.4-3.7-3.9V120h3.2v5.9c0,1.5,0.3,2.2,1.6,2.2
		c1.3,0,1.9-0.8,1.9-2.2V120H150.2z"/>
	<path d="M155.3,120v1.5c0.5-1.1,1.4-1.6,2.7-1.6v3h-0.1c-2,0-2.4,0.7-2.4,2.7v5.4h-3.2V120H155.3z"/>
	<path d="M159.2,130.8V120h3l0,1.5c0.7-1.1,1.7-1.7,3.1-1.7c2.2,0,3.7,1.4,3.7,3.9v7.2h-3.2V125c0-1.5-0.3-2.2-1.6-2.2
		c-1.3,0-1.9,0.8-1.9,2.2v5.9H159.2z"/>
	<path d="M181.5,127.7c-1.1,2.3-2.9,3.4-5.3,3.4c-1.7,0-3-0.6-4.1-1.7c-1.1-1.1-1.6-2.5-1.6-4c0-1.5,0.6-2.9,1.7-4
		c1.1-1.1,2.5-1.7,4-1.7c3.5,0,5.8,2.5,5.8,6.5v0.3h-8.2c0.3,1.2,1.1,1.8,2.5,1.8c0.6,0,1.2-0.2,1.7-0.6H181.5z M178.8,124.3
		c-0.4-1.1-1.3-1.7-2.6-1.7c-1.3,0-2.3,0.7-2.5,1.7H178.8z"/>
	<path d="M84.1,95.9h-3.8l5.5-14.4h2.9l5.5,14.4h-3.9l-0.7-2.1h-4.8L84.1,95.9z M87.2,86.2l-1.4,4.6h2.9L87.2,86.2z"/>
</g>
<polyline id="Spire" fill="none" stroke="#000000" stroke-width="1.131" stroke-miterlimit="10" points="57.5,84.9 64,107.3 
	55,126.3 66.9,124.5 63.8,142 33.2,174.6 44.6,140.9 55,126.3 63.8,142 73.1,138 77.9,141.4 114.2,155.9 119.9,170.7 79.3,165.5 
	33.2,174.6 13.3,159.6 13.2,152.4 44.6,140.9 52.5,125.1 56.8,107.2 59.6,20.4 64,107.3 66.9,124.5 73.1,138 119.9,170.7 63.8,142 
	79.3,165.5 63.8,142 44.6,140.9 13.3,159.6 "/>
</svg>
